/* XPM */
static char *_4de7227ca1f41fde0dfe1ad71054f11fXkClHXySblzegHQ[] = {
/* columns rows colors chars-per-pixel */
"32 32 3 1 ",
"  c black",
". c #FFF200",
"X c #00B7EF",
/* pixels */
"................................",
"................................",
"................................",
"................................",
"................................",
"................................",
"................................",
"................................",
"................................",
"................................",
"........XX..........XX..........",
"................................",
"................................",
"........ ... .     ..    .......",
"........ ... . .....  ..........",
"...X.... ... . ..... ......X....",
"...X.... ... .   ... ......X....",
"........ ... . ..... ...........",
"........  .  . .....  ..........",
".........   .. ......    .......",
"................................",
"................................",
"........XX..........XX..........",
"................................",
"................................",
"................................",
"................................",
"................................",
"................................",
"................................",
"................................",
"................................"
};
