/* XPM */
static char *_50e099952c14f4afd837c3572adcc80S014f7g5ZmLIoBiQ[] = {
/* columns rows colors chars-per-pixel */
"32 32 10 1 ",
"  c black",
". c #202020",
"X c #4E4E4E",
"o c #5A5A5A",
"O c #9C5A3C",
"+ c #B4B4B4",
"@ c #FFA3B1",
"# c #C1C1C1",
"$ c gray87",
"% c white",
/* pixels */
"%%%%%%%%%%%%%%%%%%%%%%%%%%%%%%%%",
"%%%%%%%%%%%%%%%%%%%%%%%%%%%%%%%%",
"%%%%%%%%%%%%%%%%%%%%%%%%%%%%%%%%",
"%%%%%%%%%%%%%%%%%%%%%%%%%%%%%%%%",
"%%%%%%%%%%%%%%%%%%%%%%%%%%%%%%%%",
"%%%%%%%%%%%++       ++%%%%%%%%%%",
"%%%%%%%%%%+  @@@@@@@  +%%%%%%%%%",
"%%%%%%%%%+ @@@@@@@@@@@ +%%%%%%%%",
"%%%%%%%%+ @@@@@@@@@@@@@ +%%%%%%%",
"%%%%%%%+ @@@@@@@@@@@@@@@ +%%%%%%",
"%%%%%%+ @@@@@@@@@@@@@@@@@ +%%%%%",
"%%%%%%+ @@@@@@@@@@@@@@@@@ +%%%%%",
"%%%%   @@@   @@@@@@@   @@@   %%%",
"%%%%   @@@ O @@@@@@@ O @@@ @ %%%",
"%%%% @ @@@@ @@@@@@@@@ @@@@ @ %%%",
"%%%% @ @@@@@@@@@@@@@@@@@@@ @ %%%",
"%%%% @ @@@@@@@@@@@@@@@@@@@ @ %%%",
"%%%% @ $@@@@@@@@@@@@@@@@@+ @ %%%",
"%%%%   +@@@@@@@@@@@@@@@@$+   %%%",
"%%%%%%% +$$@@@@@@@@@@@@$# o%%%%%",
"%%%%%%% ++@@@@@@@@@@@@#+o %%%%%%",
"%%%%%%%% .+$$       $$$o %%%%%%%",
"%%%%%%%%% o$%%%%$%%$$+. %%%%%%%%",
"%%%%%%%%%  X+X%$#%o%oX %%%%%%%%%",
"%%%%%%%%%%   +++o++o  %%%%%%%%%%",
"%%%%%%%%%%%%         %%%%%%%%%%%",
"%%%%%%%%%%%%%%%%%%%%%%%%%%%%%%%%",
"%%%%%%%%%%%%%%%%%%%%%%%%%%%%%%%%",
"%%%%%%%%%%%%%%%%%%%%%%%%%%%%%%%%",
"%%%%%%%%%%%%%%%%%%%%%%%%%%%%%%%%",
"%%%%%%%%%%%%%%%%%%%%%%%%%%%%%%%%",
"%%%%%%%%%%%%%%%%%%%%%%%%%%%%%%%%"
};
