/* XPM */
static char *_ff8afd5144e44c3dc472dfdb8325e95gBqkbJP4ZebxhQpj[] = {
/* columns rows colors chars-per-pixel */
"32 32 2 1 ",
"  c black",
". c #22B14C",
/* pixels */
"................................",
"................................",
"................................",
"................................",
"................................",
"................................",
"................................",
"................................",
"................................",
"................................",
"..........    ..  .. .. ........",
".......... .... .. . . .........",
"..........   .. .. .  ..........",
"............. . .. . . .........",
"..........   ...  .. .. ........",
"................................",
"................................",
"................................",
"................................",
"................................",
".....   ...  .. .. . .. ..   ...",
"..... .. . .. .  . . .. . ......",
".....   .. .. . .  . .. ..  ....",
"..... .. . .. . .. . .. .... ...",
".....   ...  .. .. ..  ..   ....",
"................................",
"................................",
"................................",
"................................",
"................................",
"................................",
"................................"
};
