/* XPM */
static char *_082eaf6ba964b1bafd557f72e6d0335NGfpkzTzh8nxOGc6[] = {
/* columns rows colors chars-per-pixel */
"32 32 4 1 ",
"  c black",
". c #E5AA7A",
"X c #FFA3B1",
"o c white",
/* pixels */
"oooooooooooooooooooooooooooooooo",
"oooooooooooooooooooooooooooooooo",
"oooooooooooooooooooooooooooooooo",
"oooooooooooooooooooooooooooooooo",
"ooooooooo             oooooooooo",
"oooooooo               ooooooooo",
"ooooooo  .............  oooooooo",
"ooooooo ............... oooooooo",
"oooooo  ...............  ooooooo",
"ooooo  .................  oooooo",
"ooooo ................... oooooo",
"ooooo                     oooooo",
"ooooo...      ...      ...oooooo",
"ooooo....     ...     ....oooooo",
"ooooo....     ...     ....oooooo",
"ooooo.....   .....   .....oooooo",
"ooooo.....................oooooo",
"ooooo.....................oooooo",
"ooooo.....................oooooo",
"ooooo                     oooooo",
"ooooo        XXXXX        oooooo",
"ooooo       XXXXXXX       oooooo",
"ooooo                     oooooo",
"ooooo                     oooooo",
"ooooo                     oooooo",
"oooooo                   ooooooo",
"ooooooo                 oooooooo",
"oooooooo               ooooooooo",
"ooooooooo             oooooooooo",
"oooooooooooooooooooooooooooooooo",
"oooooooooooooooooooooooooooooooo",
"oooooooooooooooooooooooooooooooo"
};
