/* XPM */
static char *f4339d18349b41b2ba7672121ee457c7I4815XYsQ3DbQ40E[] = {
/* columns rows colors chars-per-pixel */
"32 32 2 1 ",
"  c #B4B4B4",
". c white",
/* pixels */
" .. .. .. .. .. .. .. .. .. .. .",
". .. .. .. .. .. .. .. .. .. .. ",
".. .. .. .. .. .. .. .. .. .. ..",
" .. .. .. .. .. .. .. .. .. .. .",
". .. .. .. .. .. .. .. .. .. .. ",
".. .. .. .. .. .. .. .. .. .. ..",
" .. .. .. .. .. .. .. .. .. .. .",
". .. .. .. .. .. .. .. .. .. .. ",
".. .. .. .. .. .. .. .. .. .. ..",
" .. .. .. .. .. .. .. .. .. .. .",
". .. .. .. .. .. .. .. .. .. .. ",
".. .. .. .. .. .. .. .. .. .. ..",
" .. .. .. .. .. .. .. .. .. .. .",
". .. .. .. .. .. .. .. .. .. .. ",
".. .. .. .. .. .. .. .. .. .. ..",
" .. .. .. .. .. .. .. .. .. .. .",
". .. .. .. .. .. .. .. .. .. .. ",
".. .. .. .. .. .. .. .. .. .. ..",
" .. .. .. .. .. .. .. .. .. .. .",
". .. .. .. .. .. .. .. .. .. .. ",
".. .. .. .. .. .. .. .. .. .. ..",
" .. .. .. .. .. .. .. .. .. .. .",
". .. .. .. .. .. .. .. .. .. .. ",
".. .. .. .. .. .. .. .. .. .. ..",
" .. .. .. .. .. .. .. .. .. .. .",
". .. .. .. .. .. .. .. .. .. .. ",
".. .. .. .. .. .. .. .. .. .. ..",
" .. .. .. .. .. .. .. .. .. .. .",
". .. .. .. .. .. .. .. .. .. .. ",
".. .. .. .. .. .. .. .. .. .. ..",
" .. .. .. .. .. .. .. .. .. .. .",
". .. .. .. .. .. .. .. .. .. .. "
};
